<?xml version="1.0" encoding="UTF-8"?>
<svg version="1.1" xmlns="http://www.w3.org/2000/svg" width="542" height="460">
<path d="M0 0 C1.0298989 -0.00125591 1.0298989 -0.00125591 2.08060384 -0.00253719 C4.39773734 -0.0040578 6.71479529 0.00168747 9.03192139 0.00743103 C10.72227723 0.00801968 12.41263326 0.00820222 14.1029892 0.00801659 C18.7981977 0.00896329 23.49337544 0.01659096 28.18857479 0.02548099 C32.25382156 0.03244486 36.31906855 0.03580403 40.38431954 0.03929597 C55.62723441 0.052867 70.87009907 0.08474708 86.11297607 0.12046814 C87.4094746 0.12349536 88.70597313 0.12652258 90.04175949 0.12964153 C126.20081251 0.21496517 162.35975664 0.32815627 198.51866913 0.45982933 C201.53773497 0.47081722 204.55680083 0.48180122 207.5758667 0.49278259 C208.32471321 0.49551039 209.07355972 0.49823818 209.84509856 0.50104864 C222.22814661 0.54605739 234.61120562 0.58645393 246.99427494 0.62512075 C259.89632971 0.66547347 272.7983675 0.70952 285.70039678 0.75734669 C292.872695 0.78384799 300.0449907 0.80877927 307.21730804 0.82954216 C313.8734145 0.84882611 320.52948881 0.8731214 327.18556595 0.90095901 C329.62663041 0.91034882 332.06770216 0.9180171 334.50877762 0.92388725 C337.82062669 0.93210673 341.13239404 0.94636666 344.44421387 0.96224976 C345.90885012 0.96371692 345.90885012 0.96371692 347.40307498 0.96521372 C348.28126305 0.97068816 349.15945112 0.9761626 350.06425095 0.98180294 C350.82757886 0.98446098 351.59090677 0.98711902 352.37736583 0.98985761 C354.11297607 1.12046814 354.11297607 1.12046814 355.11297607 2.12046814 C355.21150074 3.88975771 355.23929696 5.66301279 355.23995972 7.43504333 C355.24277954 8.58771194 355.24559937 9.74038055 355.24850464 10.92797852 C355.24546829 12.8418058 355.24546829 12.8418058 355.24237061 14.79429626 C355.24372463 16.14255826 355.24550458 17.49081989 355.24768066 18.83908081 C355.25225481 22.51046842 355.25046552 26.18182805 355.24730158 29.85321617 C355.24477788 33.68713331 355.24711554 37.52104798 355.24868774 41.35496521 C355.25050941 47.7945448 355.24810321 54.23411294 355.24334717 60.6736908 C355.23790455 68.12918977 355.23966721 75.58466139 355.24517357 83.0401597 C355.24970479 89.4299539 355.25035521 95.81973984 355.2477349 102.20953512 C355.24617218 106.03084861 355.24597825 109.85214924 355.24927139 113.67346191 C355.25215023 117.26520639 355.25017419 120.85691545 355.24437714 124.44865608 C355.24241401 126.40342281 355.24540334 128.35819251 355.24850464 130.31295776 C355.2442749 132.04196068 355.2442749 132.04196068 355.23995972 133.80589294 C355.23958269 134.81395744 355.23920567 135.82202194 355.23881721 136.86063385 C355.11297607 139.12046814 355.11297607 139.12046814 354.11297607 140.12046814 C352.4862283 140.21387248 350.85543556 140.23791985 349.22601318 140.23399353 C348.18500961 140.233918 347.14400604 140.23384247 346.07145691 140.23376465 C344.93918167 140.22860336 343.80690643 140.22344208 342.64031982 140.21812439 C340.91115074 140.21600197 340.91115074 140.21600197 339.14704895 140.21383667 C335.44816544 140.20821819 331.74934143 140.19566256 328.05047607 140.18296814 C325.5498259 140.17795552 323.04917479 140.1733922 320.54852295 140.16929626 C314.40332019 140.15824276 308.25815238 140.14148666 302.11297607 140.12046814 C302.11574145 141.16133355 302.11574145 141.16133355 302.1185627 142.22322655 C302.16268691 159.08957124 302.19580589 175.95589771 302.21660042 192.82228661 C302.22692318 200.97866765 302.24100254 209.13501022 302.26385498 217.29136658 C302.28375833 224.39852537 302.29668523 231.50565631 302.30115306 238.6128422 C302.30376564 242.37778268 302.30992694 246.14264345 302.32443619 249.90755844 C302.3404832 254.10535503 302.34095773 258.3030121 302.34002686 262.50083923 C302.34721741 263.75599838 302.35440796 265.01115753 302.36181641 266.30435181 C302.35906708 267.44301193 302.35631775 268.58167206 302.35348511 269.75483704 C302.35625049 271.24537629 302.35625049 271.24537629 302.35907173 272.76602745 C302.11297607 275.12046814 302.11297607 275.12046814 300.11297607 277.12046814 C297.76412201 277.37494373 297.76412201 277.37494373 294.76080322 277.38116455 C293.62503342 277.38824936 292.48926361 277.39533417 291.31907654 277.40263367 C290.06705948 277.40015625 288.81504242 277.39767883 287.52508545 277.39512634 C285.55436821 277.40279274 285.55436821 277.40279274 283.5438385 277.41061401 C279.93440548 277.42403246 276.32507697 277.42457962 272.71562386 277.42205071 C269.70597088 277.42098307 266.69633923 277.42585899 263.68669081 277.43065614 C256.58902366 277.44176085 249.49140943 277.44218312 242.39373779 277.43614197 C235.06257253 277.43009822 227.73159899 277.44242104 220.40046644 277.46371204 C214.11338559 277.48130199 207.82636591 277.48733359 201.53926134 277.48407429 C197.78103965 277.48225734 194.02295475 277.48493851 190.26475525 277.49878883 C186.07666482 277.51364533 181.88896722 277.50442 177.7008667 277.49278259 C176.44884964 277.50042633 175.19683258 277.50807007 173.90687561 277.51594543 C172.2032209 277.50542397 172.2032209 277.50542397 170.46514893 277.49468994 C169.47405373 277.49485768 168.48295853 277.49502542 167.46183014 277.49519825 C166.6867083 277.37153731 165.91158646 277.24787638 165.11297607 277.12046814 C162.86014201 273.74121705 162.86506896 272.62682128 162.87246704 268.67254639 C162.86834305 266.97511543 162.86834305 266.97511543 162.86413574 265.24339294 C162.87132629 264.00117981 162.87851685 262.75896667 162.88592529 261.47911072 C162.88563324 260.17169418 162.88534119 258.86427765 162.88504028 257.51724243 C162.88446578 253.93070279 162.89623586 250.34429655 162.9101882 246.75778794 C162.92267927 243.01017318 162.92386477 239.26255546 162.92623901 235.5149231 C162.93245856 228.41763362 162.94887579 221.32040565 162.96893799 214.22314328 C162.99128223 206.14342956 163.00228671 198.06371292 163.01232886 189.98397601 C163.03324163 173.36276502 163.06992377 156.74163877 163.11297607 140.12046814 C149.25297607 140.12046814 135.39297607 140.12046814 121.11297607 140.12046814 C121.20578857 146.83390564 121.20578857 146.83390564 121.30047607 153.68296814 C121.44102406 191.14002383 112.354895 221.46572055 85.69036865 248.59190369 C83.61505507 250.60297602 81.4183768 252.38004226 79.11297607 254.12046814 C78.34340576 254.72246033 77.57383545 255.32445251 76.78094482 255.94468689 C44.8919477 279.8990989 2.9145683 289.84372756 -36.57843018 284.24888611 C-40.36754848 283.62778486 -44.12675284 282.89546083 -47.88702393 282.12046814 C-49.04669678 281.89568787 -49.04669678 281.89568787 -50.22979736 281.66636658 C-76.40738455 276.58197748 -99.04924361 264.82146627 -118.88702393 247.12046814 C-119.90796143 246.20974548 -119.90796143 246.20974548 -120.94952393 245.28062439 C-137.09848423 229.9914467 -146.01491593 209.43011091 -150.88702393 188.12046814 C-151.15608047 186.98426277 -151.15608047 186.98426277 -151.43057251 185.82510376 C-153.23526452 177.25796156 -153.1418696 168.78071299 -153.08233643 160.07749939 C-153.07859808 158.45654476 -153.075755 156.83558784 -153.07376099 155.21463013 C-153.06618912 150.98473172 -153.04659743 146.75497452 -153.02435303 142.52513123 C-153.0037543 138.19429941 -152.99472952 133.86344438 -152.98468018 129.53257751 C-152.96334429 121.06181018 -152.929288 112.59115681 -152.88702393 104.12046814 C-135.95440189 104.09713945 -119.02178484 104.07948911 -102.08915043 104.06865597 C-94.22758002 104.06349295 -86.36601958 104.05645013 -78.50445557 104.04502869 C-71.65476918 104.03508204 -64.80509 104.02861476 -57.95539659 104.02637964 C-54.32632996 104.02507251 -50.69728398 104.02198645 -47.06822395 104.01473808 C-43.02352088 104.00672458 -38.97885404 104.00647699 -34.93414307 104.00694275 C-33.72214233 104.00334747 -32.5101416 103.9997522 -31.26141357 103.99604797 C-29.61859154 103.99810997 -29.61859154 103.99810997 -27.94258118 104.00021362 C-26.50596681 103.99883093 -26.50596681 103.99883093 -25.04032993 103.99742031 C-22.88702393 104.12046814 -22.88702393 104.12046814 -21.88702393 105.12046814 C-21.79390503 106.62465553 -21.76956365 108.1331817 -21.77349854 109.64024353 C-21.77357407 110.60116409 -21.7736496 111.56208466 -21.77372742 112.55212402 C-21.7788887 113.59690414 -21.78404999 114.64168427 -21.78936768 115.71812439 C-21.7914901 117.3141172 -21.7914901 117.3141172 -21.7936554 118.94235229 C-21.79927329 122.35591897 -21.81182882 125.76942114 -21.82452393 129.18296814 C-21.82953662 131.4909099 -21.83409993 133.79885269 -21.8381958 136.10679626 C-21.84924854 141.77804525 -21.86652515 147.44924574 -21.88702393 153.12046814 C-18.91702393 152.79046814 -15.94702393 152.46046814 -12.88702393 152.12046814 C-12.88840662 150.98048764 -12.88840662 150.98048764 -12.88981724 149.81747723 C-12.91188487 131.34015182 -12.92844155 112.86282904 -12.9388361 94.38549328 C-12.9439962 85.45006017 -12.95103349 76.51463585 -12.96246338 67.57920837 C-12.97241891 59.79267585 -12.97887943 52.0061497 -12.98111242 44.21961099 C-12.98241804 40.09528428 -12.98549458 35.97097578 -12.99275398 31.84665489 C-12.99952788 27.9668314 -13.00163808 24.08703366 -13.00013161 20.20720482 C-13.00040732 18.7813503 -13.00240434 17.35549495 -13.0062294 15.92964554 C-13.01118791 13.986398 -13.00941649 12.04313672 -13.00727844 10.09988403 C-13.00866113 8.46692776 -13.00866113 8.46692776 -13.01007175 6.80098248 C-12.88702393 4.12046814 -12.88702393 4.12046814 -11.88702393 1.12046814 C-7.86720844 0.16391672 -4.12717238 -0.0030493 0 0 Z " fill="#79797E" transform="translate(169.88702392578125,98.87953186035156)"/>
<path d="M0 0 C50.37879277 -0.04030303 50.37879277 -0.04030303 71.7265625 -0.04882812 C86.38216508 -0.05472827 101.03776185 -0.06160824 115.69335938 -0.07543945 C126.3738448 -0.08551421 137.05432544 -0.09188331 147.73481548 -0.09408849 C153.37211696 -0.09537426 159.00940478 -0.09832053 164.64670181 -0.10573006 C169.99007588 -0.11269404 175.33343114 -0.11457728 180.67680931 -0.11310768 C182.60236782 -0.11337514 184.5279272 -0.11525613 186.45348167 -0.11920547 C205.98860132 -0.1571873 225.45649612 0.48569727 245 1 C245 45.88 245 90.76 245 137 C227.51 137 210.02 137 192 137 C192 181.88 192 226.76 192 273 C147.45 273 102.9 273 57 273 C57 228.12 57 183.24 57 137 C38.19 137 19.38 137 0 137 C0 91.79 0 46.58 0 0 Z " fill="#868DDE" transform="translate(278,101)"/>
<path d="M0 0 C1.0298989 -0.00125591 1.0298989 -0.00125591 2.08060384 -0.00253719 C4.39773734 -0.0040578 6.71479529 0.00168747 9.03192139 0.00743103 C10.72227723 0.00801968 12.41263326 0.00820222 14.1029892 0.00801659 C18.7981977 0.00896329 23.49337544 0.01659096 28.18857479 0.02548099 C32.25382156 0.03244486 36.31906855 0.03580403 40.38431954 0.03929597 C55.62723441 0.052867 70.87009907 0.08474708 86.11297607 0.12046814 C87.4094746 0.12349536 88.70597313 0.12652258 90.04175949 0.12964153 C126.20081251 0.21496517 162.35975664 0.32815627 198.51866913 0.45982933 C201.53773497 0.47081722 204.55680083 0.48180122 207.5758667 0.49278259 C208.69913647 0.49687429 208.69913647 0.49687429 209.84509856 0.50104864 C222.22814661 0.54605739 234.61120562 0.58645393 246.99427494 0.62512075 C259.89632971 0.66547347 272.7983675 0.70952 285.70039678 0.75734669 C292.872695 0.78384799 300.0449907 0.80877927 307.21730804 0.82954216 C313.8734145 0.84882611 320.52948881 0.8731214 327.18556595 0.90095901 C329.62663041 0.91034882 332.06770216 0.9180171 334.50877762 0.92388725 C337.82062669 0.93210673 341.13239404 0.94636666 344.44421387 0.96224976 C345.90885012 0.96371692 345.90885012 0.96371692 347.40307498 0.96521372 C348.28126305 0.97068816 349.15945112 0.9761626 350.06425095 0.98180294 C350.82757886 0.98446098 351.59090677 0.98711902 352.37736583 0.98985761 C354.11297607 1.12046814 354.11297607 1.12046814 355.11297607 2.12046814 C355.21150074 3.88975771 355.23929696 5.66301279 355.23995972 7.43504333 C355.24277954 8.58771194 355.24559937 9.74038055 355.24850464 10.92797852 C355.24546829 12.8418058 355.24546829 12.8418058 355.24237061 14.79429626 C355.24372463 16.14255826 355.24550458 17.49081989 355.24768066 18.83908081 C355.25225481 22.51046842 355.25046552 26.18182805 355.24730158 29.85321617 C355.24477788 33.68713331 355.24711554 37.52104798 355.24868774 41.35496521 C355.25050941 47.7945448 355.24810321 54.23411294 355.24334717 60.6736908 C355.23790455 68.12918977 355.23966721 75.58466139 355.24517357 83.0401597 C355.24970479 89.4299539 355.25035521 95.81973984 355.2477349 102.20953512 C355.24617218 106.03084861 355.24597825 109.85214924 355.24927139 113.67346191 C355.25215023 117.26520639 355.25017419 120.85691545 355.24437714 124.44865608 C355.24241401 126.40342281 355.24540334 128.35819251 355.24850464 130.31295776 C355.2442749 132.04196068 355.2442749 132.04196068 355.23995972 133.80589294 C355.23958269 134.81395744 355.23920567 135.82202194 355.23881721 136.86063385 C355.11297607 139.12046814 355.11297607 139.12046814 354.11297607 140.12046814 C352.4862283 140.21387248 350.85543556 140.23791985 349.22601318 140.23399353 C348.18500961 140.233918 347.14400604 140.23384247 346.07145691 140.23376465 C344.93918167 140.22860336 343.80690643 140.22344208 342.64031982 140.21812439 C340.91115074 140.21600197 340.91115074 140.21600197 339.14704895 140.21383667 C335.44816544 140.20821819 331.74934143 140.19566256 328.05047607 140.18296814 C325.5498259 140.17795552 323.04917479 140.1733922 320.54852295 140.16929626 C314.40332019 140.15824276 308.25815238 140.14148666 302.11297607 140.12046814 C302.11574145 141.16133355 302.11574145 141.16133355 302.1185627 142.22322655 C302.16268691 159.08957124 302.19580589 175.95589771 302.21660042 192.82228661 C302.22692318 200.97866765 302.24100254 209.13501022 302.26385498 217.29136658 C302.28375833 224.39852537 302.29668523 231.50565631 302.30115306 238.6128422 C302.30376564 242.37778268 302.30992694 246.14264345 302.32443619 249.90755844 C302.3404832 254.10535503 302.34095773 258.3030121 302.34002686 262.50083923 C302.34721741 263.75599838 302.35440796 265.01115753 302.36181641 266.30435181 C302.35906708 267.44301193 302.35631775 268.58167206 302.35348511 269.75483704 C302.35625049 271.24537629 302.35625049 271.24537629 302.35907173 272.76602745 C302.11297607 275.12046814 302.11297607 275.12046814 300.11297607 277.12046814 C297.76412201 277.37494373 297.76412201 277.37494373 294.76080322 277.38116455 C293.62503342 277.38824936 292.48926361 277.39533417 291.31907654 277.40263367 C290.06705948 277.40015625 288.81504242 277.39767883 287.52508545 277.39512634 C285.55436821 277.40279274 285.55436821 277.40279274 283.5438385 277.41061401 C279.93440548 277.42403246 276.32507697 277.42457962 272.71562386 277.42205071 C269.70597088 277.42098307 266.69633923 277.42585899 263.68669081 277.43065614 C256.58902366 277.44176085 249.49140943 277.44218312 242.39373779 277.43614197 C235.06257253 277.43009822 227.73159899 277.44242104 220.40046644 277.46371204 C214.11338559 277.48130199 207.82636591 277.48733359 201.53926134 277.48407429 C197.78103965 277.48225734 194.02295475 277.48493851 190.26475525 277.49878883 C186.07666482 277.51364533 181.88896722 277.50442 177.7008667 277.49278259 C176.44884964 277.50042633 175.19683258 277.50807007 173.90687561 277.51594543 C172.7711058 277.50893112 171.635336 277.50191681 170.46514893 277.49468994 C169.47405373 277.49485768 168.48295853 277.49502542 167.46183014 277.49519825 C166.6867083 277.37153731 165.91158646 277.24787638 165.11297607 277.12046814 C162.86014201 273.74121705 162.86506896 272.62682128 162.87246704 268.67254639 C162.86834305 266.97511543 162.86834305 266.97511543 162.86413574 265.24339294 C162.87492157 263.38007324 162.87492157 263.38007324 162.88592529 261.47911072 C162.88563324 260.17169418 162.88534119 258.86427765 162.88504028 257.51724243 C162.88446578 253.93070279 162.89623586 250.34429655 162.9101882 246.75778794 C162.92267927 243.01017318 162.92386477 239.26255546 162.92623901 235.5149231 C162.93245856 228.41763362 162.94887579 221.32040565 162.96893799 214.22314328 C162.99128223 206.14342956 163.00228671 198.06371292 163.01232886 189.98397601 C163.03324163 173.36276502 163.06992377 156.74163877 163.11297607 140.12046814 C149.25297607 140.12046814 135.39297607 140.12046814 121.11297607 140.12046814 C121.17485107 144.59609314 121.23672607 149.07171814 121.30047607 153.68296814 C121.44102406 191.14002383 112.354895 221.46572055 85.69036865 248.59190369 C83.61505507 250.60297602 81.4183768 252.38004226 79.11297607 254.12046814 C78.34340576 254.72246033 77.57383545 255.32445251 76.78094482 255.94468689 C71.31281022 260.05224627 65.69129471 263.64796087 59.73797607 266.99546814 C58.72126831 267.56720764 58.72126831 267.56720764 57.684021 268.15049744 C50.65072157 272.03289267 50.65072157 272.03289267 47.11297607 273.12046814 C46.12297607 272.79046814 45.13297607 272.46046814 44.11297607 272.12046814 C47.22096246 270.11531563 50.33071603 268.58922718 53.73797607 267.18296814 C57.28930983 265.64757302 58.99103399 264.40947837 61.11297607 261.12046814 C64.09133108 259.05853006 66.61869334 257.93580078 70.11297607 257.12046814 C71.10297607 256.46046814 72.09297607 255.80046814 73.11297607 255.12046814 C73.11297607 254.46046814 73.11297607 253.80046814 73.11297607 253.12046814 C73.79360107 252.91421814 74.47422607 252.70796814 75.17547607 252.49546814 C80.49741424 250.00434815 84.55957896 246.57801267 87.23797607 241.30796814 C89.11297607 238.12046814 89.11297607 238.12046814 91.73797607 237.43296814 C92.52172607 237.32984314 93.30547607 237.22671814 94.11297607 237.12046814 C95.27219735 235.3890396 95.27219735 235.3890396 96.11297607 233.12046814 C96.77297607 232.17171814 97.43297607 231.22296814 98.11297607 230.24546814 C100.21929426 227.24882008 100.21929426 227.24882008 101.11297607 223.99546814 C102.11297607 221.12046814 102.11297607 221.12046814 103.98797607 219.30796814 C108.07034453 215.10553003 110.11297607 209.92876099 110.11297607 204.12046814 C110.77297607 203.79046814 111.43297607 203.46046814 112.11297607 203.12046814 C112.96227733 200.6214449 112.96227733 200.6214449 113.61297607 197.62046814 C113.96875732 196.11999939 113.96875732 196.11999939 114.33172607 194.58921814 C114.58953857 193.44453064 114.84735107 192.29984314 115.11297607 191.12046814 C115.46231201 189.85460876 115.81164795 188.58874939 116.17156982 187.28453064 C117.78461417 180.00050737 117.54875115 172.42422495 117.67547607 164.99546814 C117.71972661 162.70266147 117.76664704 160.40997736 117.81828308 158.11732483 C117.84969358 156.70048945 117.87674085 155.28354762 117.89851379 153.86653137 C117.98839709 149.52804334 118.42535281 145.39447109 119.11297607 141.12046814 C114.49297607 141.12046814 109.87297607 141.12046814 105.11297607 141.12046814 C105.11297607 140.46046814 105.11297607 139.80046814 105.11297607 139.12046814 C104.45297607 138.79046814 103.79297607 138.46046814 103.11297607 138.12046814 C103.44297607 136.80046814 103.77297607 135.48046814 104.11297607 134.12046814 C104.77297607 134.12046814 105.43297607 134.12046814 106.11297607 134.12046814 C105.45297607 133.13046814 104.79297607 132.14046814 104.11297607 131.12046814 C104.31232953 129.24902112 104.52544419 127.37788191 104.81240654 125.51785278 C105.40039237 120.82799554 105.24229141 116.09983494 105.22650146 111.38023376 C105.2267205 109.65209946 105.2267205 109.65209946 105.22694397 107.88905334 C105.22625032 104.10158876 105.21848363 100.31417407 105.21063232 96.52671814 C105.2087662 93.89256314 105.20734321 91.25840779 105.2063446 88.62425232 C105.20324555 82.41254956 105.1950515 76.20086456 105.18499511 69.9891696 C105.17378955 62.91294223 105.16831236 55.83671397 105.16329968 48.76047993 C105.1528676 34.2138002 105.13529593 19.66713442 105.11297607 5.12046814 C101.10978282 3.78607039 97.72256882 2.99635195 93.49389648 2.96224976 C92.57125504 2.95246094 91.64861359 2.94267212 90.69801331 2.93258667 C89.69316391 2.92683121 88.68831451 2.92107574 87.65301514 2.91514587 C86.58929184 2.90524628 85.52556854 2.89534668 84.42961121 2.88514709 C80.91263049 2.85355247 77.39563627 2.82878259 73.87860107 2.80406189 C71.44050749 2.78349061 69.00241746 2.7624941 66.56433105 2.74108887 C60.1462695 2.68588618 53.72817585 2.63646888 47.31005859 2.58824158 C40.76126244 2.53801345 34.21251291 2.48233422 27.66375732 2.42710876 C14.813537 2.31954921 1.96327687 2.21791421 -10.88702393 2.12046814 C-10.88610213 2.89775992 -10.88518034 3.67505171 -10.88423061 4.47589779 C-10.86217676 23.36143655 -10.84561305 42.24697275 -10.83521175 61.13252163 C-10.83004849 70.26530862 -10.8230052 79.39808704 -10.81158447 88.53086853 C-10.80163858 96.48804688 -10.79517072 104.44521902 -10.79293543 112.40240341 C-10.79162816 116.618328 -10.7885413 120.83423482 -10.78129387 125.05015373 C-10.77453514 129.01368998 -10.77240666 132.97720103 -10.77391624 136.94074249 C-10.77363985 138.3996882 -10.77163385 139.85863471 -10.76781845 141.31757545 C-10.76288357 143.30093409 -10.76462582 145.28430606 -10.76676941 147.26766968 C-10.76584762 148.38027381 -10.76492582 149.49287794 -10.7639761 150.63919735 C-10.88702393 153.12046814 -10.88702393 153.12046814 -11.88702393 154.12046814 C-15.51702393 154.12046814 -19.14702393 154.12046814 -22.88702393 154.12046814 C-22.88702393 137.95046814 -22.88702393 121.78046814 -22.88702393 105.12046814 C-22.55702393 105.12046814 -22.22702393 105.12046814 -21.88702393 105.12046814 C-21.88702393 120.96046814 -21.88702393 136.80046814 -21.88702393 153.12046814 C-18.91702393 152.79046814 -15.94702393 152.46046814 -12.88702393 152.12046814 C-12.88794572 151.36048114 -12.88886751 150.60049414 -12.88981724 149.81747723 C-12.91188487 131.34015182 -12.92844155 112.86282904 -12.9388361 94.38549328 C-12.9439962 85.45006017 -12.95103349 76.51463585 -12.96246338 67.57920837 C-12.97241891 59.79267585 -12.97887943 52.0061497 -12.98111242 44.21961099 C-12.98241804 40.09528428 -12.98549458 35.97097578 -12.99275398 31.84665489 C-12.99952788 27.9668314 -13.00163808 24.08703366 -13.00013161 20.20720482 C-13.00040732 18.7813503 -13.00240434 17.35549495 -13.0062294 15.92964554 C-13.01118791 13.986398 -13.00941649 12.04313672 -13.00727844 10.09988403 C-13.00820024 9.01124652 -13.00912203 7.922609 -13.01007175 6.80098248 C-12.88702393 4.12046814 -12.88702393 4.12046814 -11.88702393 1.12046814 C-7.86720844 0.16391672 -4.12717238 -0.0030493 0 0 Z M108.11297607 2.12046814 C108.11297607 47.33046814 108.11297607 92.54046814 108.11297607 139.12046814 C126.92297607 139.12046814 145.73297607 139.12046814 165.11297607 139.12046814 C165.11297607 184.00046814 165.11297607 228.88046814 165.11297607 275.12046814 C209.66297607 275.12046814 254.21297607 275.12046814 300.11297607 275.12046814 C300.11297607 230.24046814 300.11297607 185.36046814 300.11297607 139.12046814 C317.60297607 139.12046814 335.09297607 139.12046814 353.11297607 139.12046814 C353.11297607 94.24046814 353.11297607 49.36046814 353.11297607 3.12046814 C322.45090441 2.27342936 322.45090441 2.27342936 291.79705811 2.00694275 C289.75207012 2.0072268 287.70708204 2.00706268 285.66209412 2.00650024 C280.26161454 2.00622073 274.86115853 2.01197595 269.4606843 2.0190742 C263.76070694 2.02545306 258.06072867 2.02592274 252.36074829 2.02709961 C241.63451226 2.03017109 230.90828679 2.03832622 220.18205535 2.0484491 C205.64000378 2.06186648 191.09794918 2.06714404 176.55589294 2.07295132 C153.74157946 2.08227044 130.92728822 2.10221669 108.11297607 2.12046814 Z " fill="#332956" transform="translate(169.88702392578125,98.87953186035156)"/>
<path d="M0 0 C3.3 0 6.6 0 10 0 C10 45.21 10 90.42 10 137 C9.67 137 9.34 137 9 137 C8.67 134.03 8.34 131.06 8 128 C7.34 128.33 6.68 128.66 6 129 C6.16265854 127.92214233 6.32531708 126.84428467 6.49290466 125.73376465 C7.17415866 120.24385518 7.13200923 114.78457007 7.11352539 109.25976562 C7.11367142 108.10767609 7.11381744 106.95558655 7.1139679 105.76858521 C7.11327425 101.98112062 7.10550755 98.19370594 7.09765625 94.40625 C7.09579012 91.772095 7.09436714 89.13793965 7.09336853 86.50378418 C7.09026947 80.29208142 7.08207542 74.08039642 7.07201904 67.86870146 C7.06081348 60.79247409 7.05533629 53.71624583 7.05032361 46.64001179 C7.03989152 32.09333207 7.02231986 17.54666628 7 3 C6.01 2.67 5.02 2.34 4 2 C2.68 1.34 1.36 0.68 0 0 Z " fill="#324D51" transform="translate(268,101)"/>
<path d="M0 0 C13.04957256 -0.02334042 26.09914001 -0.04102431 39.14872932 -0.05181217 C45.2104886 -0.05699409 51.27223342 -0.06400471 57.33398438 -0.07543945 C63.20197564 -0.08643732 69.06995316 -0.09231199 74.93795395 -0.09487724 C77.1582244 -0.09670146 79.37849423 -0.10026223 81.5987587 -0.10573006 C96.09648709 -0.13995948 110.52317074 0.20983044 125 1 C125 1.33 125 1.66 125 2 C87.05 2 49.1 2 10 2 C9.67 2.66 9.34 3.32 9 4 C9 3.34 9 2.68 9 2 C7.35 2.33 5.7 2.66 4 3 C2.98888907 6.04913228 2.98888907 6.04913228 4 9 C3.67 9.66 3.34 10.32 3 11 C2.88097188 12.69463258 2.82285313 14.39371122 2.79467773 16.09228516 C2.77473251 17.15323395 2.75478729 18.21418274 2.73423767 19.30728149 C2.71752518 20.45626923 2.70081268 21.60525696 2.68359375 22.7890625 C2.66281265 23.96262299 2.64203156 25.13618347 2.62062073 26.3453064 C2.55508017 30.10514304 2.49621924 33.86505122 2.4375 37.625 C2.39431908 40.16927832 2.35070493 42.71354933 2.30664062 45.2578125 C2.19939418 51.50513207 2.0976362 57.75252326 2 64 C2.66 64 3.32 64 4 64 C3.01 68.95 3.01 68.95 2 74 C-0.1328963 69.73420741 -0.24387326 67.79676502 -0.22705078 63.12011719 C-0.22734283 62.43678314 -0.22763489 61.7534491 -0.22793579 61.04940796 C-0.22654624 58.79843294 -0.21100302 56.54779196 -0.1953125 54.296875 C-0.19158103 52.73317648 -0.18873469 51.16947562 -0.18673706 49.60577393 C-0.17911114 45.49578362 -0.15947164 41.3859353 -0.1373291 37.27600098 C-0.11684822 33.07985352 -0.10773055 28.88368306 -0.09765625 24.6875 C-0.07622472 16.45826827 -0.04210139 8.22915181 0 0 Z " fill="#A5A5B2" transform="translate(18,204)"/>
<path d="M0 0 C0.33 0 0.66 0 1 0 C1 9.9 1 19.8 1 30 C-16.49 30 -33.98 30 -52 30 C-52 74.88 -52 119.76 -52 166 C-69.82 166 -87.64 166 -106 166 C-106 165.67 -106 165.34 -106 165 C-100.93210124 164.85560886 -95.86415 164.71327962 -90.79614258 164.57275391 C-89.07672614 164.52480013 -87.35732456 164.47631023 -85.63793945 164.42724609 C-76.42413096 164.16468336 -67.21876763 163.90642165 -58 164 C-58 163.34 -58 162.68 -58 162 C-56.68 162 -55.36 162 -54 162 C-54.00368717 161.32247272 -54.00737434 160.64494543 -54.01117325 159.94688702 C-54.09945356 143.47244283 -54.16567501 126.99807341 -54.20724869 110.52344799 C-54.22788704 102.55647991 -54.25603172 94.58966958 -54.30175781 86.62280273 C-54.34158689 79.68007263 -54.36742356 72.73745674 -54.37635398 65.79461557 C-54.38157548 62.11728391 -54.39387366 58.44027905 -54.42292023 54.76305199 C-54.45505953 50.66114082 -54.45596196 46.55980026 -54.45410156 42.45776367 C-54.46848267 41.23425201 -54.48286377 40.01074036 -54.49768066 38.75015259 C-54.49218201 37.63536026 -54.48668335 36.52056793 -54.48101807 35.37199402 C-54.48470524 34.40134601 -54.48839241 33.43069799 -54.49219131 32.43063641 C-54 30 -54 30 -51.96993637 28.16425037 C-51.31985737 27.78004775 -50.66977837 27.39584513 -50 27 C-50 27.66 -50 28.32 -50 29 C-49.01902344 28.84402344 -48.03804688 28.68804687 -47.02734375 28.52734375 C-38.56888724 27.27537386 -30.95820193 27.00414329 -22.421875 27.76953125 C-16.85102155 28.14473713 -11.56561329 27.55774202 -6.125 26.375 C-3.74363274 25.95475872 -2.30067547 26.35504077 0 27 C-0.08378906 26.3915625 -0.16757812 25.783125 -0.25390625 25.15625 C-1.24018477 16.66676404 -0.69178369 8.48233235 0 0 Z " fill="#AA71CD" transform="translate(522,208)"/>
<path d="M0 0 C0.66 0 1.32 0 2 0 C2.02334562 16.76769689 2.04098737 33.53538852 2.05181217 50.30309772 C2.05697158 58.08838252 2.06400755 65.87365723 2.07543945 73.65893555 C2.0853971 80.44345153 2.09185601 87.22796021 2.09408849 94.0124833 C2.09539376 97.60584332 2.09846802 101.19918245 2.10573006 104.79253578 C2.11376535 108.800909 2.11399044 112.80924571 2.11352539 116.81762695 C2.11712067 118.0130864 2.12071594 119.20854584 2.12442017 120.44023132 C2.1230455 121.52978119 2.12167084 122.61933105 2.12025452 123.74189758 C2.12163721 125.16468505 2.12163721 125.16468505 2.12304783 126.61621571 C2 129 2 129 1 132 C1.99 132.33 2.98 132.66 4 133 C4.66 133.33 5.32 133.66 6 134 C7.60354452 134.09016377 9.21082222 134.11756075 10.81689453 134.11352539 C11.81778107 134.11344986 12.8186676 134.11337433 13.84988403 134.11329651 C14.93325043 134.10813522 16.01661682 134.10297394 17.1328125 134.09765625 C18.23978485 134.0962413 19.3467572 134.09482635 20.48727417 134.09336853 C24.03320993 134.08775772 27.57908323 134.07520337 31.125 134.0625 C33.52473867 134.05748639 35.92447833 134.05292325 38.32421875 134.04882812 C44.21616725 134.03778478 50.10807916 134.0210361 56 134 C56 134.33 56 134.66 56 135 C37.51799674 137.64028618 18.66964262 136 0 136 C0 91.12 0 46.24 0 0 Z " fill="#59ADE1" transform="translate(335,238)"/>
<path d="M0 0 C8.91 0 17.82 0 27 0 C27 0.33 27 0.66 27 1 C20.36633605 2.08304718 13.89429698 2.00631951 7.1953125 1.83984375 C3.90623042 1.64655432 3.90623042 1.64655432 2 4 C1.69859452 6.29902317 1.69859452 6.29902317 1.75276184 9.00376892 C1.74856735 10.06236618 1.74437286 11.12096344 1.74005127 12.2116394 C1.74567078 13.37792877 1.75129028 14.54421814 1.75708008 15.74584961 C1.75518173 16.97027267 1.75328339 18.19469574 1.75132751 19.45622253 C1.7482512 22.8199257 1.75414435 26.18338453 1.76428056 29.54705882 C1.77305131 33.06372479 1.77130379 36.58038648 1.7709198 40.09706116 C1.77185703 46.00442727 1.78054817 51.91174208 1.79418945 57.8190918 C1.80990833 64.65143881 1.81518783 71.4837296 1.8144539 78.31609339 C1.81384367 84.88350769 1.81894917 91.45090366 1.82724571 98.01831245 C1.83077858 100.81529445 1.83260897 103.61226996 1.83313942 106.40925407 C1.83432987 110.31444159 1.84403968 114.21958227 1.85473633 118.12475586 C1.85428314 119.289021 1.85382996 120.45328613 1.85336304 121.65283203 C1.85762802 122.71424911 1.86189301 123.7756662 1.86628723 124.86924744 C1.86796308 125.79305175 1.86963892 126.71685606 1.87136555 127.66865444 C1.90597658 130.15706705 1.90597658 130.15706705 3 133 C3.33 132.67 3.66 132.34 4 132 C5.99958364 131.95919217 8.00045254 131.95745644 10 132 C10 132.66 10 133.32 10 134 C13.465 133.01 13.465 133.01 17 132 C17.66 132.66 18.32 133.32 19 134 C19.66 133.67 20.32 133.34 21 133 C23.09217486 133.20246853 25.18397127 133.41381042 27.26953125 133.67578125 C32.16635321 134.25723507 37.08488896 134.60911976 42 135 C42 134.01 42 133.02 42 132 C42.598125 132.20625 43.19625 132.4125 43.8125 132.625 C46.28450846 133.30671915 46.28450846 133.30671915 49 131 C52 131 52 131 53.6875 132.5 C54.120625 132.995 54.55375 133.49 55 134 C55.66 133.34 56.32 132.68 57 132 C57 133.32 57 134.64 57 136 C38.19 136 19.38 136 0 136 C0 91.12 0 46.24 0 0 Z " fill="#3DBACF" transform="translate(278,102)"/>
<path d="M0 0 C1.00390917 2.58402655 1.13740253 3.66875157 0.05859375 6.26953125 C-6.57050389 16.66842899 -15.12854576 26.55168692 -25 34 C-25.76957031 34.60199219 -26.53914063 35.20398438 -27.33203125 35.82421875 C-32.80016586 39.93177813 -38.42168137 43.52749273 -44.375 46.875 C-45.05280518 47.25615967 -45.73061035 47.63731934 -46.42895508 48.0300293 C-53.4622545 51.91242453 -53.4622545 51.91242453 -57 53 C-57.99 52.67 -58.98 52.34 -60 52 C-56.89201361 49.99484749 -53.78226005 48.46875904 -50.375 47.0625 C-46.82366624 45.52710488 -45.12194209 44.28901023 -43 41 C-40.021645 38.93806192 -37.49428274 37.81533264 -34 37 C-33.01 36.34 -32.02 35.68 -31 35 C-31 34.34 -31 33.68 -31 33 C-30.319375 32.79375 -29.63875 32.5875 -28.9375 32.375 C-23.61556183 29.88388001 -19.55339712 26.45754453 -16.875 21.1875 C-15 18 -15 18 -12.375 17.3125 C-11.59125 17.209375 -10.8075 17.10625 -10 17 C-8.84077872 15.26857146 -8.84077872 15.26857146 -8 13 C-7.34 12.05125 -6.68 11.1025 -6 10.125 C-4.06462473 7.10097614 -3.10286816 4.38738078 -2 1 C-1.34 0.67 -0.68 0.34 0 0 Z " fill="#2C2F3E" transform="translate(274,319)"/>
<path d="M0 0 C0.33 0 0.66 0 1 0 C1 9.9 1 19.8 1 30 C-16.16 30 -33.32 30 -51 30 C-51 29.67 -51 29.34 -51 29 C-41.21712323 27.55112841 -32.26201184 26.87750159 -22.38671875 27.76953125 C-16.82961008 28.14769666 -11.55215958 27.5548173 -6.125 26.375 C-3.74363274 25.95475872 -2.30067547 26.35504077 0 27 C-0.08378906 26.3915625 -0.16757812 25.783125 -0.25390625 25.15625 C-1.24018477 16.66676404 -0.69178369 8.48233235 0 0 Z " fill="#AC58BA" transform="translate(522,208)"/>
<path d="M0 0 C0.33 0 0.66 0 1 0 C1 12.54 1 25.08 1 38 C1.99 38.33 2.98 38.66 4 39 C4.66 39.33 5.32 39.66 6 40 C7.60354452 40.09016377 9.21082222 40.11756075 10.81689453 40.11352539 C11.81778107 40.11344986 12.8186676 40.11337433 13.84988403 40.11329651 C14.93325043 40.10813522 16.01661682 40.10297394 17.1328125 40.09765625 C18.23978485 40.0962413 19.3467572 40.09482635 20.48727417 40.09336853 C24.03320993 40.08775772 27.57908323 40.07520337 31.125 40.0625 C33.52473867 40.05748639 35.92447833 40.05292325 38.32421875 40.04882812 C44.21616725 40.03778478 50.10807916 40.0210361 56 40 C56 40.33 56 40.66 56 41 C49.84394905 42.09080241 43.83917721 42.12876053 37.59765625 42.09765625 C36.51995468 42.0962413 35.44225311 42.09482635 34.33189392 42.09336853 C30.90873371 42.08779611 27.48564025 42.07524868 24.0625 42.0625 C21.73372491 42.05748144 19.40494878 42.05291915 17.07617188 42.04882812 C11.38406852 42.038689 5.6921085 42.01910816 0 42 C0 28.14 0 14.28 0 0 Z " fill="#66A2DB" transform="translate(335,332)"/>
<path d="M0 0 C0.80824219 0.11085938 1.61648437 0.22171875 2.44921875 0.3359375 C3.37154297 0.47902344 3.37154297 0.47902344 4.3125 0.625 C-12.09249264 10.71363184 -42.63366539 6.9616823 -60.6875 3.625 C-60.6875 3.295 -60.6875 2.965 -60.6875 2.625 C-60.12675278 2.62722061 -59.56600555 2.62944122 -58.98826599 2.63172913 C-53.13175089 2.65391865 -47.27524781 2.6689635 -41.41870117 2.67993164 C-39.235428 2.68494843 -37.05215818 2.69176337 -34.86889648 2.70043945 C-31.72378717 2.71262147 -28.57872243 2.71825497 -25.43359375 2.72265625 C-24.4635289 2.72781754 -23.49346405 2.73297882 -22.4940033 2.73829651 C-14.93765597 2.73891659 -6.6820458 -0.96841244 0 0 Z " fill="#3A3D4E" transform="translate(186.6875,378.375)"/>
<path d="M0 0 C1.6875 1.5 1.6875 1.5 3 3 C3.66 2.34 4.32 1.68 5 1 C5 2.32 5 3.64 5 5 C-13.81 5 -32.62 5 -52 5 C-52 4.67 -52 4.34 -52 4 C-51.15236084 3.96241577 -51.15236084 3.96241577 -50.28759766 3.92407227 C-47.73316258 3.80820044 -45.1791045 3.68543463 -42.625 3.5625 C-41.29082031 3.50352539 -41.29082031 3.50352539 -39.9296875 3.44335938 C-39.07890625 3.40146484 -38.228125 3.35957031 -37.3515625 3.31640625 C-36.56604004 3.27974854 -35.78051758 3.24309082 -34.97119141 3.20532227 C-32.92476504 3.109109 -32.92476504 3.109109 -31 2 C-28.90782514 2.20246853 -26.81602873 2.41381042 -24.73046875 2.67578125 C-19.83364679 3.25723507 -14.91511104 3.60911976 -10 4 C-10 3.01 -10 2.02 -10 1 C-9.401875 1.20625 -8.80375 1.4125 -8.1875 1.625 C-4.83920926 2.1989927 -3.54798823 0 0 0 Z " fill="#3EA1C3" transform="translate(330,233)"/>
<path d="M0 0 C0.33 0 0.66 0 1 0 C0.35332554 13.42406989 -2.08018869 25.2334256 -7 37.6875 C-7.34426025 38.56156494 -7.68852051 39.43562988 -8.04321289 40.33618164 C-10.838422 47.15916991 -10.838422 47.15916991 -14 50 C-13.5051462 45.17517546 -11.95685184 41.44272438 -9.83984375 37.1484375 C-8.75727995 34.7635475 -8.75727995 34.7635475 -9 31 C-8.34 30.67 -7.68 30.34 -7 30 C-6.2156615 27.80707597 -6.2156615 27.80707597 -5.625 25.0625 C-5.37363281 23.99644531 -5.12226563 22.93039062 -4.86328125 21.83203125 C-4.57839844 20.56746094 -4.29351562 19.30289062 -4 18 C-3.73968994 16.84636963 -3.73968994 16.84636963 -3.47412109 15.66943359 C-2.29899858 10.44999127 -1.14398958 5.22634834 0 0 Z " fill="#1F2131" transform="translate(289,272)"/>
<path d="M0 0 C6.93 0 13.86 0 21 0 C21 0.33 21 0.66 21 1 C17.04 1 13.08 1 9 1 C8.67 1.66 8.34 2.32 8 3 C8 2.34 8 1.68 8 1 C6.35 1.33 4.7 1.66 3 2 C1.98888907 5.04913228 1.98888907 5.04913228 3 8 C2.67 8.66 2.34 9.32 2 10 C1.88295036 11.35752296 1.82322811 12.72025888 1.79467773 14.08251953 C1.77473251 14.92324005 1.75478729 15.76396057 1.73423767 16.63015747 C1.71752518 17.53853363 1.70081268 18.44690979 1.68359375 19.3828125 C1.66281265 20.31221649 1.64203156 21.24162048 1.62062073 22.19918823 C1.55512354 25.1743821 1.49623948 28.14966577 1.4375 31.125 C1.39431494 33.13933228 1.35070066 35.15365541 1.30664062 37.16796875 C1.19944197 42.11188663 1.09817499 47.05589503 1 52 C0.67 52 0.34 52 0 52 C0 34.84 0 17.68 0 0 Z " fill="#D0D1D7" transform="translate(19,205)"/>
<path d="M0 0 C0.33 0 0.66 0 1 0 C1 2.97 1 5.94 1 9 C19.81 9 38.62 9 58 9 C58 9.33 58 9.66 58 10 C38.53 10.33 19.06 10.66 -1 11 C-1 10.34 -1 9.68 -1 9 C-1.66 8.67 -2.32 8.34 -3 8 C-2.67 6.68 -2.34 5.36 -2 4 C-1.34 4 -0.68 4 0 4 C0 2.68 0 1.36 0 0 Z " fill="#143C5C" transform="translate(276,229)"/>
<path d="M0 0 C2.475 0.99 2.475 0.99 5 2 C4.79375 2.5775 4.5875 3.155 4.375 3.75 C3.90582716 6.56503702 4.68732766 7.52908735 6 10 C6 11.32 6 12.64 6 14 C6.66 14 7.32 14 8 14 C7.34 15.32 6.68 16.64 6 18 C2.23817814 14.68074541 1.16838523 10.77090638 0 6 C-0.1875 2.4375 -0.1875 2.4375 0 0 Z " fill="#7A7F8C" transform="translate(23,295)"/>
<path d="M0 0 C0.33 0 0.66 0 1 0 C1 9.57 1 19.14 1 29 C-5.6 29 -12.2 29 -19 29 C-19 28.67 -19 28.34 -19 28 C-18.33613281 27.93941406 -17.67226563 27.87882812 -16.98828125 27.81640625 C-11.52454201 27.31336956 -11.52454201 27.31336956 -6.125 26.375 C-3.74363274 25.95475872 -2.30067547 26.35504077 0 27 C-0.12568359 26.08734375 -0.12568359 26.08734375 -0.25390625 25.15625 C-1.24018477 16.66676404 -0.69178369 8.48233235 0 0 Z " fill="#DB57D3" transform="translate(522,208)"/>
<path d="M0 0 C-0.95953984 3.74024711 -1.86576575 4.90557667 -5.08203125 7.16796875 C-6.3172279 7.8562441 -7.56113032 8.52908703 -8.8125 9.1875 C-9.42931641 9.52974609 -10.04613281 9.87199219 -10.68164062 10.22460938 C-14.02750647 12.05576868 -17.35371203 13.86093273 -21 15 C-21.99 14.67 -22.98 14.34 -24 14 C-20.89201361 11.99484749 -17.78226005 10.46875904 -14.375 9.0625 C-10.82366624 7.52710488 -9.12194209 6.28901023 -7 3 C-2.60714286 0 -2.60714286 0 0 0 Z " fill="#444555" transform="translate(238,357)"/>
<path d="M0 0 C1.65 0 3.3 0 5 0 C4.67 0.99 4.34 1.98 4 3 C4.66 3 5.32 3 6 3 C6.33 3.99 6.66 4.98 7 6 C8.29355827 7.37195574 9.62298702 8.71182656 11 10 C10.01 10.33 9.02 10.66 8 11 C3.328746 7.85405343 1.31125202 5.6383837 0 0 Z " fill="#A2A4B1" transform="translate(39,329)"/>
<path d="M0 0 C2.97 0.495 2.97 0.495 6 1 C0.01162324 6.46764835 -8.24288713 7.38435612 -16 8 C-13.56701985 5.56701985 -11.87323246 5.2772741 -8.5625 4.4375 C-5.66695291 3.69337139 -2.83725335 2.94575112 0 2 C0 1.34 0 0.68 0 0 Z " fill="#2A2C41" transform="translate(208,371)"/>
<path d="M0 0 C0.99 1.485 0.99 1.485 2 3 C2.33 2.67 2.66 2.34 3 2 C4.99958364 1.95919217 7.00045254 1.95745644 9 2 C9 2.66 9 3.32 9 4 C11.31 3.34 13.62 2.68 16 2 C16.33 2.99 16.66 3.98 17 5 C11.39 5 5.78 5 0 5 C0 3.35 0 1.7 0 0 Z " fill="#36CBE9" transform="translate(279,232)"/>
<path d="M0 0 C0.33 0 0.66 0 1 0 C1 2.97 1 5.94 1 9 C5.29 9 9.58 9 14 9 C14 9.33 14 9.66 14 10 C9.05 10.33 4.1 10.66 -1 11 C-1 10.34 -1 9.68 -1 9 C-1.66 8.67 -2.32 8.34 -3 8 C-2.67 6.68 -2.34 5.36 -2 4 C-1.34 4 -0.68 4 0 4 C0 2.68 0 1.36 0 0 Z " fill="#344850" transform="translate(276,229)"/>
<path d="M0 0 C0.80824219 0.11085938 1.61648437 0.22171875 2.44921875 0.3359375 C3.37154297 0.47902344 3.37154297 0.47902344 4.3125 0.625 C-1.89731949 4.09433577 -9.65482541 5.00514457 -16.6875 4.625 C-13.92699662 1.86449662 -11.48694016 2.15825476 -7.6875 1.625 C-4.33422361 -0.61051759 -3.78006343 -0.54783528 0 0 Z " fill="#404353" transform="translate(186.6875,378.375)"/>
<path d="M0 0 C8.58 0 17.16 0 26 0 C26 0.33 26 0.66 26 1 C19.39792849 2.07788923 12.95998089 2.00702058 6.29296875 1.83984375 C2.85697663 1.72439707 2.85697663 1.72439707 0 4 C0 2.68 0 1.36 0 0 Z " fill="#44C6E9" transform="translate(279,102)"/>
<path d="M0 0 C0.99 1.32 1.98 2.64 3 4 C-1.29 4 -5.58 4 -10 4 C-10 3.01 -10 2.02 -10 1 C-9.401875 1.20625 -8.80375 1.4125 -8.1875 1.625 C-4.83920926 2.1989927 -3.54798823 0 0 0 Z " fill="#51B3E4" transform="translate(330,233)"/>
<path d="M0 0 C2 1.625 2 1.625 4 4 C4.25 7.25 4.25 7.25 4 10 C4.66 10 5.32 10 6 10 C5.34 11.32 4.68 12.64 4 14 C-0.59225513 4.58997722 -0.59225513 4.58997722 0 0 Z " fill="#BFC2CA" transform="translate(25,299)"/>
<path d="M0 0 C2 2 2 2 2 6 C3.92022703 7.77409808 3.92022703 7.77409808 6 9 C5.67 9.66 5.34 10.32 5 11 C3.70450101 9.90033225 2.41373929 8.79508199 1.125 7.6875 C0.40570313 7.07261719 -0.31359375 6.45773437 -1.0546875 5.82421875 C-3 4 -3 4 -5 1 C-3.68 1.33 -2.36 1.66 -1 2 C-0.67 1.34 -0.34 0.68 0 0 Z " fill="#B3B5BF" transform="translate(54,340)"/>
<path d="M0 0 C-2.09836004 1.03271642 -4.20390891 2.05083717 -6.3125 3.0625 C-7.48425781 3.63097656 -8.65601563 4.19945312 -9.86328125 4.78515625 C-13 6 -13 6 -16 5 C-5.55789474 -1.85263158 -5.55789474 -1.85263158 0 0 Z " fill="#2C2E46" transform="translate(230,366)"/>
<path d="M0 0 C0.33 0 0.66 0 1 0 C1 1.65 1 3.3 1 5 C-2.63 5 -6.26 5 -10 5 C-10 4.67 -10 4.34 -10 4 C-8.02 4 -6.04 4 -4 4 C-4 3.34 -4 2.68 -4 2 C-2.68 2 -1.36 2 0 2 C0 1.34 0 0.68 0 0 Z " fill="#BB6DD9" transform="translate(468,368)"/>
<path d="M0 0 C1.98 0 3.96 0 6 0 C6.66 1.65 7.32 3.3 8 5 C4.5625 4.1875 4.5625 4.1875 1 3 C0.67 2.01 0.34 1.02 0 0 Z " fill="#9698A3" transform="translate(73,360)"/>
<path d="M0 0 C0.33 1.32 0.66 2.64 1 4 C1.66 4 2.32 4 3 4 C2.34 7.3 1.68 10.6 1 14 C0.67 14 0.34 14 0 14 C0 9.38 0 4.76 0 0 Z " fill="#CBCCD4" transform="translate(19,264)"/>
<path d="M0 0 C2.97 0.495 2.97 0.495 6 1 C3.64031256 3.09749995 2.45383006 3.96905704 -0.75 4.1875 C-1.86375 4.0946875 -1.86375 4.0946875 -3 4 C-2.67 3.34 -2.34 2.68 -2 2 C-1.34 2 -0.68 2 0 2 C0 1.34 0 0.68 0 0 Z " fill="#424450" transform="translate(208,371)"/>
<path d="M0 0 C0.33 1.65 0.66 3.3 1 5 C-2.26954202 4.43628586 -3.82575883 3.50037734 -6 1 C-3 0 -3 0 0 0 Z " fill="#ABADB8" transform="translate(71,354)"/>
<path d="M0 0 C0.625 1.8125 0.625 1.8125 1 4 C0.01 5.485 0.01 5.485 -1 7 C-1.66 7 -2.32 7 -3 7 C-2.625 4.0625 -2.625 4.0625 -2 1 C-1.34 0.67 -0.68 0.34 0 0 Z " fill="#2E3143" transform="translate(274,319)"/>
<path d="M0 0 C0.99 0.33 1.98 0.66 3 1 C0.69 2.65 -1.62 4.3 -4 6 C-4 5.01 -4 4.02 -4 3 C-2.1875 1.25 -2.1875 1.25 0 0 Z " fill="#28293B" transform="translate(242,355)"/>
<path d="M0 0 C2.97 0 5.94 0 9 0 C8.67 0.66 8.34 1.32 8 2 C7.236875 1.95875 6.47375 1.9175 5.6875 1.875 C2.77281584 1.77919176 2.77281584 1.77919176 0 4 C0 2.68 0 1.36 0 0 Z " fill="#3DD0E4" transform="translate(279,102)"/>
</svg>
